<svg width="211" height="48" viewBox="0 0 211 48" fill="none" xmlns="http://www.w3.org/2000/svg">
<rect x="1" y="1" width="209" height="46" rx="23" stroke="url(#paint0_linear_333_187)"/>
<path d="M33.929 30.16C33.065 30.16 32.297 30.0373 31.625 29.792V27.968C32.1584 28.2027 32.7824 28.32 33.497 28.32C34.1584 28.32 34.6277 28.1867 34.905 27.92C35.193 27.6427 35.337 27.1947 35.337 26.576V19.696H37.497V27.056C37.497 29.1253 36.3077 30.16 33.929 30.16ZM43.0258 30.16C41.6071 30.16 40.5671 29.8187 39.9058 29.136C39.2444 28.4427 38.9138 27.4667 38.9138 26.208C38.9138 24.9493 39.2444 23.9787 39.9058 23.296C40.5778 22.6027 41.6178 22.256 43.0258 22.256C44.4444 22.256 45.4844 22.6027 46.1458 23.296C46.8178 23.9787 47.1538 24.9493 47.1538 26.208C47.1538 27.4667 46.8231 28.4427 46.1618 29.136C45.5004 29.8187 44.4551 30.16 43.0258 30.16ZM43.0258 28.32C43.7191 28.32 44.2151 28.1653 44.5138 27.856C44.8124 27.536 44.9618 26.9867 44.9618 26.208C44.9618 25.4293 44.8124 24.8853 44.5138 24.576C44.2151 24.256 43.7191 24.096 43.0258 24.096C42.3431 24.096 41.8524 24.256 41.5538 24.576C41.2551 24.8853 41.1058 25.4293 41.1058 26.208C41.1058 26.9867 41.2551 27.536 41.5538 27.856C41.8524 28.1653 42.3431 28.32 43.0258 28.32ZM48.8712 21.024V19.328H51.2232V21.024H48.8712ZM49.0472 30V24.016H47.9112L48.1032 22.416H51.2072V30H49.0472ZM53.0463 30V22.416H55.0463L55.1263 23.136C55.4356 22.9013 55.8249 22.6987 56.2943 22.528C56.7743 22.3467 57.2756 22.256 57.7983 22.256C58.8009 22.256 59.5316 22.4907 59.9903 22.96C60.4489 23.4293 60.6783 24.1547 60.6783 25.136V30H58.5183V25.248C58.5183 24.736 58.4116 24.3733 58.1983 24.16C57.9956 23.9467 57.6116 23.84 57.0463 23.84C56.7156 23.84 56.3796 23.9147 56.0383 24.064C55.7076 24.2133 55.4303 24.4 55.2063 24.624V30H53.0463ZM70.6405 30.16C67.3019 30.16 65.6325 28.4053 65.6325 24.896C65.6325 23.008 66.0539 21.6427 66.8965 20.8C67.7392 19.9573 68.9872 19.536 70.6405 19.536C72.2939 19.536 73.5419 19.9573 74.3845 20.8C75.2272 21.6427 75.6485 23.008 75.6485 24.896C75.6485 28.4053 73.9792 30.16 70.6405 30.16ZM70.6405 28.32C71.6112 28.32 72.3205 28.0427 72.7685 27.488C73.2272 26.9227 73.4565 26.0587 73.4565 24.896C73.4565 23.6053 73.2272 22.6987 72.7685 22.176C72.3205 21.6427 71.6112 21.376 70.6405 21.376C69.6699 21.376 68.9552 21.6427 68.4965 22.176C68.0485 22.6987 67.8245 23.6053 67.8245 24.896C67.8245 26.0587 68.0485 26.9227 68.4965 27.488C68.9552 28.0427 69.6699 28.32 70.6405 28.32ZM79.9557 30.16C79.049 30.16 78.3397 29.9093 77.8277 29.408C77.3263 28.896 77.0757 28.1493 77.0757 27.168V22.416H79.2357V27.12C79.2357 27.632 79.3583 28.0053 79.6037 28.24C79.849 28.464 80.217 28.576 80.7077 28.576C81.081 28.576 81.4223 28.5013 81.7317 28.352C82.0517 28.2027 82.3237 28.016 82.5477 27.792V22.416H84.7077V30H82.7077L82.6277 29.28C82.3077 29.536 81.929 29.7493 81.4917 29.92C81.065 30.08 80.553 30.16 79.9557 30.16ZM86.5463 30V22.416H88.5463L88.6423 23.2C88.9836 22.9867 89.4049 22.7947 89.9063 22.624C90.4183 22.4427 90.9196 22.32 91.4103 22.256V23.888C91.1223 23.9307 90.8076 23.9947 90.4663 24.08C90.1249 24.1653 89.7996 24.2613 89.4903 24.368C89.1809 24.4747 88.9196 24.5867 88.7063 24.704V30H86.5463ZM101.055 30.16C99.3267 30.16 98.004 29.696 97.0867 28.768C96.1693 27.8293 95.7107 26.5547 95.7107 24.944C95.7107 23.2373 96.1533 21.9093 97.0387 20.96C97.9347 20.0107 99.268 19.536 101.039 19.536C101.657 19.536 102.212 19.584 102.703 19.68C103.204 19.7653 103.673 19.888 104.111 20.048V21.936C103.204 21.5627 102.233 21.376 101.199 21.376C100.025 21.376 99.1827 21.6693 98.6707 22.256C98.1587 22.8427 97.9027 23.7387 97.9027 24.944C97.9027 27.2053 99.012 28.336 101.231 28.336C101.732 28.336 102.228 28.2933 102.719 28.208C103.209 28.112 103.679 27.9733 104.127 27.792V29.696C103.689 29.8347 103.22 29.9467 102.719 30.032C102.228 30.1173 101.673 30.16 101.055 30.16ZM109.416 30.16C107.998 30.16 106.958 29.8187 106.296 29.136C105.635 28.4427 105.304 27.4667 105.304 26.208C105.304 24.9493 105.635 23.9787 106.296 23.296C106.968 22.6027 108.008 22.256 109.416 22.256C110.835 22.256 111.875 22.6027 112.536 23.296C113.208 23.9787 113.544 24.9493 113.544 26.208C113.544 27.4667 113.214 28.4427 112.552 29.136C111.891 29.8187 110.846 30.16 109.416 30.16ZM109.416 28.32C110.11 28.32 110.606 28.1653 110.904 27.856C111.203 27.536 111.352 26.9867 111.352 26.208C111.352 25.4293 111.203 24.8853 110.904 24.576C110.606 24.256 110.11 24.096 109.416 24.096C108.734 24.096 108.243 24.256 107.944 24.576C107.646 24.8853 107.496 25.4293 107.496 26.208C107.496 26.9867 107.646 27.536 107.944 27.856C108.243 28.1653 108.734 28.32 109.416 28.32ZM115.046 30V22.416H117.046L117.126 23.152C117.489 22.8747 117.884 22.656 118.31 22.496C118.748 22.336 119.217 22.256 119.718 22.256C120.252 22.256 120.662 22.336 120.95 22.496C121.249 22.656 121.478 22.8853 121.638 23.184C121.99 22.9067 122.39 22.6827 122.838 22.512C123.297 22.3413 123.836 22.256 124.454 22.256C125.329 22.256 125.974 22.4853 126.39 22.944C126.806 23.392 127.014 24.08 127.014 25.008V30H124.886V25.248C124.886 24.7467 124.78 24.3893 124.566 24.176C124.353 23.952 124.012 23.84 123.542 23.84C122.902 23.84 122.369 24.0693 121.942 24.528C121.996 24.7093 122.022 24.928 122.022 25.184V30H120.006V25.248C120.006 24.7787 119.926 24.4267 119.766 24.192C119.606 23.9573 119.297 23.84 118.838 23.84C118.518 23.84 118.214 23.9253 117.926 24.096C117.649 24.256 117.398 24.4427 117.174 24.656V30H115.046ZM128.781 30V22.416H130.781L130.861 23.152C131.223 22.8747 131.618 22.656 132.045 22.496C132.482 22.336 132.951 22.256 133.453 22.256C133.986 22.256 134.397 22.336 134.685 22.496C134.983 22.656 135.213 22.8853 135.373 23.184C135.725 22.9067 136.125 22.6827 136.573 22.512C137.031 22.3413 137.57 22.256 138.189 22.256C139.063 22.256 139.709 22.4853 140.125 22.944C140.541 23.392 140.749 24.08 140.749 25.008V30H138.621V25.248C138.621 24.7467 138.514 24.3893 138.301 24.176C138.087 23.952 137.746 23.84 137.277 23.84C136.637 23.84 136.103 24.0693 135.677 24.528C135.73 24.7093 135.757 24.928 135.757 25.184V30H133.741V25.248C133.741 24.7787 133.661 24.4267 133.501 24.192C133.341 23.9573 133.031 23.84 132.573 23.84C132.253 23.84 131.949 23.9253 131.661 24.096C131.383 24.256 131.133 24.4427 130.909 24.656V30H128.781ZM145.315 30.16C144.408 30.16 143.699 29.9093 143.187 29.408C142.686 28.896 142.435 28.1493 142.435 27.168V22.416H144.595V27.12C144.595 27.632 144.718 28.0053 144.963 28.24C145.208 28.464 145.576 28.576 146.067 28.576C146.44 28.576 146.782 28.5013 147.091 28.352C147.411 28.2027 147.683 28.016 147.907 27.792V22.416H150.067V30H148.067L147.987 29.28C147.667 29.536 147.288 29.7493 146.851 29.92C146.424 30.08 145.912 30.16 145.315 30.16ZM151.906 30V22.416H153.906L153.986 23.136C154.295 22.9013 154.684 22.6987 155.154 22.528C155.634 22.3467 156.135 22.256 156.658 22.256C157.66 22.256 158.391 22.4907 158.85 22.96C159.308 23.4293 159.538 24.1547 159.538 25.136V30H157.378V25.248C157.378 24.736 157.271 24.3733 157.058 24.16C156.855 23.9467 156.471 23.84 155.906 23.84C155.575 23.84 155.239 23.9147 154.898 24.064C154.567 24.2133 154.29 24.4 154.066 24.624V30H151.906ZM161.824 21.024V19.328H164.176V21.024H161.824ZM162 30V24.016H160.864L161.056 22.416H164.16V30H162ZM169.007 30.16C168.133 30.16 167.482 29.9307 167.055 29.472C166.639 29.0133 166.431 28.3893 166.431 27.6V24.08H165.359V22.416H166.431V20.784L168.591 20.144V22.416H170.511L170.383 24.08H168.591V27.456C168.591 27.872 168.687 28.16 168.879 28.32C169.071 28.4693 169.37 28.544 169.775 28.544C170.074 28.544 170.383 28.4907 170.703 28.384V29.872C170.469 29.968 170.213 30.0373 169.935 30.08C169.658 30.1333 169.349 30.16 169.007 30.16ZM173.077 32.816C172.746 32.816 172.453 32.7947 172.197 32.752C171.941 32.72 171.69 32.656 171.445 32.56V31.04C171.626 31.104 171.792 31.1467 171.941 31.168C172.101 31.1893 172.261 31.2 172.421 31.2C172.858 31.2 173.194 31.0987 173.429 30.896C173.674 30.6933 173.92 30.352 174.165 29.872L170.773 22.416H173.029L175.253 27.568L177.461 22.416H179.701L176.709 29.472C176.432 30.1333 176.128 30.7147 175.797 31.216C175.477 31.728 175.098 32.1227 174.661 32.4C174.224 32.6773 173.696 32.816 173.077 32.816Z" fill="url(#paint1_linear_333_187)"/>
<defs>
<linearGradient id="paint0_linear_333_187" x1="4.28616" y1="1" x2="212.3" y2="1" gradientUnits="userSpaceOnUse">
<stop stop-color="#FA4C07"/>
<stop offset="1" stop-color="#EAAF1C"/>
</linearGradient>
<linearGradient id="paint1_linear_333_187" x1="168.775" y1="40" x2="51.1105" y2="-40.484" gradientUnits="userSpaceOnUse">
<stop stop-color="#FA5005"/>
<stop offset="1" stop-color="#F8B502"/>
</linearGradient>
</defs>
</svg>
