<svg width="16" height="15" viewBox="0 0 26 26" fill="none" xmlns="http://www.w3.org/2000/svg">
<path d="M7.58333 22.75H18.4167C19.5659 22.75 20.6681 22.2935 21.4808 21.4808C22.2935 20.6681 22.75 19.5659 22.75 18.4167V13.1625C22.75 12.8752 22.6359 12.5996 22.4327 12.3965C22.2295 12.1933 21.954 12.0792 21.6667 12.0792C21.3793 12.0792 21.1038 12.1933 20.9006 12.3965C20.6975 12.5996 20.5833 12.8752 20.5833 13.1625V18.4167C20.5833 18.9913 20.3551 19.5424 19.9487 19.9487C19.5424 20.3551 18.9913 20.5833 18.4167 20.5833H7.58333C7.0087 20.5833 6.4576 20.3551 6.05127 19.9487C5.64494 19.5424 5.41667 18.9913 5.41667 18.4167V7.58333C5.41667 7.0087 5.64494 6.4576 6.05127 6.05127C6.4576 5.64494 7.0087 5.41667 7.58333 5.41667H13C13.2873 5.41667 13.5629 5.30253 13.766 5.09937C13.9692 4.8962 14.0833 4.62065 14.0833 4.33333C14.0833 4.04602 13.9692 3.77047 13.766 3.5673C13.5629 3.36414 13.2873 3.25 13 3.25H7.58333C6.43406 3.25 5.33186 3.70655 4.5192 4.5192C3.70655 5.33186 3.25 6.43406 3.25 7.58333V18.4167C3.25 19.5659 3.70655 20.6681 4.5192 21.4808C5.33186 22.2935 6.43406 22.75 7.58333 22.75Z" fill="white"/>
<path d="M21.9808 4.64746L13 13.6391L9.43582 10.0641C9.23183 9.86013 8.95515 9.74552 8.66665 9.74552C8.37816 9.74552 8.10148 9.86013 7.89749 10.0641C7.69349 10.2681 7.57889 10.5448 7.57889 10.8333C7.57889 10.9761 7.60702 11.1176 7.66169 11.2496C7.71635 11.3815 7.79648 11.5014 7.89749 11.6025L12.2308 15.9358C12.3315 16.0373 12.4513 16.1179 12.5834 16.1729C12.7154 16.2279 12.857 16.2562 13 16.2562C13.143 16.2562 13.2846 16.2279 13.4166 16.1729C13.5486 16.1179 13.6684 16.0373 13.7692 15.9358L23.5192 6.18579C23.7231 5.98179 23.8378 5.70512 23.8378 5.41662C23.8378 5.12813 23.7231 4.85145 23.5192 4.64746C23.3152 4.44346 23.0385 4.32886 22.75 4.32886C22.4615 4.32886 22.1848 4.44346 21.9808 4.64746Z" fill="white"/>
</svg>
